<svg width="16" height="16" viewBox="0 0 16 16" fill="none" xmlns="http://www.w3.org/2000/svg">
<path opacity="0.1" d="M13.6234 13.3202L9.92469 8.22856L15.0163 4.5299C15.6571 4.06445 15.8011 3.15578 15.3356 2.51504C14.8702 1.87429 13.9615 1.7303 13.3208 2.19575L8.22911 5.89443L4.53044 0.802776C4.06499 0.16203 3.15634 0.0180385 2.51559 0.483489C1.87485 0.94894 1.73085 1.85761 2.1963 2.49836L5.89497 7.58998L0.803333 11.2887C0.162586 11.7541 0.0185926 12.6628 0.484043 13.3035C0.949494 13.9443 1.85815 14.0883 2.4989 13.6228L7.59054 9.92413L11.2892 15.0158C11.7547 15.6565 12.6633 15.8005 13.3041 15.3351C13.9547 14.8712 14.0971 13.9724 13.6234 13.3202Z" fill="white"/>
</svg>
